PathFileType	4	(X/Y/Z)	/Users/itak/Documents/Research/Walk-IL/dataset/trc/00278_00010.trc
DataRate	CameraRate	NumFrames	NumMarkers	Units	OrigDataRate	OrigDataStartFrame	OrigNumFrames
100.000000	100.000000	4	54	mm	100.000000	414	552
Frame#	Time	RPSI			LPSI			L3			STRN			T10			C7			CLAV			RBAK			LBAK			LSHO			LUPA			LAEL			LAOL			LWTS			LWPS			LFRA			LIFD			LHPS			LHTS			RSHO			RUPA			RAEL			RAOL			RWTS			RWPS			RFRA			RIFD			RHTS			RHPS			RBHD			LFHD			RFHD			LBHD			LHIP			RASI			LASI			LKNE			LTHI			LANK			LTIP			LTOE			LMT1			LMT5			LHEE			RKNE			RTHI			RANK			RTIP			RTOE			RMT1			RMT5			RHEE			RHIP			*53			
		X1	Y1	Z1	X2	Y2	Z2	X3	Y3	Z3	X4	Y4	Z4	X5	Y5	Z5	X6	Y6	Z6	X7	Y7	Z7	X8	Y8	Z8	X9	Y9	Z9	X10	Y10	Z10	X11	Y11	Z11	X12	Y12	Z12	X13	Y13	Z13	X14	Y14	Z14	X15	Y15	Z15	X16	Y16	Z16	X17	Y17	Z17	X18	Y18	Z18	X19	Y19	Z19	X20	Y20	Z20	X21	Y21	Z21	X22	Y22	Z22	X23	Y23	Z23	X24	Y24	Z24	X25	Y25	Z25	X26	Y26	Z26	X27	Y27	Z27	X28	Y28	Z28	X29	Y29	Z29	X30	Y30	Z30	X31	Y31	Z31	X32	Y32	Z32	X33	Y33	Z33	X34	Y34	Z34	X35	Y35	Z35	X36	Y36	Z36	X37	Y37	Z37	X38	Y38	Z38	X39	Y39	Z39	X40	Y40	Z40	X41	Y41	Z41	X42	Y42	Z42	X43	Y43	Z43	X44	Y44	Z44	X45	Y45	Z45	X46	Y46	Z46	X47	Y47	Z47	X48	Y48	Z48	X49	Y49	Z49	X50	Y50	Z50	X51	Y51	Z51	X52	Y52	Z52	X53	Y53	Z53	X54	Y54	Z54	

415	4.14	-286.2658996582031	955.2110595703125	-161.2715301513672	-118.0713272094727	951.9213256835938	-116.2424850463867	-183.433349609375	1019.402648925781	-124.2825775146484	-246.8855438232422	1197.865112304688	113.7066650390625	-156.1090240478516	1134.989501953125	-133.2081756591797	-136.3462066650391	1378.709350585938	-77.74959564208984	-212.8650207519531	1297.650268554688	59.7943115234375	-193.5754699707031	1245.651611328125	-159.2925262451172	-37.95935440063477	1334.302612304688	-51.99529647827148	-28.20273399353027	1338.684448242188	52.1644172668457	45.02101516723633	1217.512573242188	54.61328506469727	40.43115997314453	1017.005737304688	71.93798065185547	22.32578659057617	997.97705078125	-11.74991226196289	-90.78324890136719	855.9070434570312	171.5527648925781	-27.64922523498535	821.7864990234375	177.9430389404297	17.81544876098633	926.4502563476562	110.3272171020508	-154.9775848388672	695.27783203125	242.3832092285156	-61.51079177856445	746.5753173828125	211.0377655029297	-112.7626724243164	779.7766723632812	235.5556640625	-308.4417419433594	1369.46240234375	-86.10824584960938	-367.0486450195312	1322.899047851562	-129.6723175048828	-403.8309936523438	1073.209594726562	-219.1514129638672	-314.5350646972656	1057.956665039062	-192.0590667724609	-428.9021606445312	830.64892578125	-159.4880676269531	-462.9618530273438	845.6546630859375	-237.0339202880859	-430.7483520507812	1006.329711914062	-221.9176330566406	-434.2187194824219	651.4765625	-201.390625	-461.9544067382812	715.7582397460938	-174.7697906494141	-476.0094909667969	731.6455688476562	-242.3351440429688	-228.2255249023438	1543.60302734375	-64.24988555908203	-157.9232635498047	1559.502197265625	136.4003448486328	-247.0747985839844	1562.055419921875	110.1363830566406	-88.22078704833984	1529.424438476562	-22.94192504882812	-38.9463005065918	900.6846313476562	-29.42569541931152	-363.7035827636719	911.1925048828125	45.09347915649414	-114.1015930175781	898.13525390625	95.61412811279297	-96.41835784912109	451.6789855957031	-101.4343032836914	-67.87818145751953	586.0362548828125	-55.21960830688477	-76.65675354003906	63.311279296875	-341.4986572265625	-77.89069366455078	251.3937683105469	-222.1814117431641	-270.0367431640625	35.82696151733398	-252.5201568603516	-240.4369659423828	39.44540786743164	-325.4748840332031	-157.89453125	40.4677619934082	-250.0969543457031	-84.66868591308594	79.41043090820312	-414.8507385253906	-423.0769958496094	475.1107788085938	112.6705551147461	-440.5529479980469	715.7845458984375	15.74635982513428	-449.373779296875	45.69428253173828	265.3695068359375	-427.1034851074219	371.0981750488281	177.8280334472656	-387.4625549316406	129.5061798095703	432.6867370605469	-349.2041320800781	100.152473449707	383.9647827148438	-463.2193603515625	72.62252807617188	366.0018920898438	-400.2619018554688	28.09432411193848	214.6804046630859	-410.9707336425781	905.0189819335938	-85.15469360351562	nan	nan	nan	
416	4.15	-291.9826049804688	953.5476684570312	-149.8471527099609	-123.1319961547852	950.2191772460938	-106.2991256713867	-188.9536285400391	1017.216735839844	-113.4324951171875	-250.6607971191406	1196.148071289062	124.1019897460938	-161.9420013427734	1132.747802734375	-123.1843338012695	-142.0547332763672	1376.84033203125	-69.04025268554688	-217.3140563964844	1295.940551757812	69.75955963134766	-199.9502716064453	1243.171997070312	-149.5220031738281	-43.31950378417969	1332.614135742188	-44.06377792358398	-32.66661834716797	1337.061645507812	60.1318359375	40.63765716552734	1215.789672851562	61.80134201049805	36.91151428222656	1014.539123535156	78.38396453857422	17.08872413635254	996.6800537109375	-5.272965431213379	-90.63922882080078	848.2534790039062	175.5336456298828	-26.4775447845459	814.8541870117188	179.4093780517578	15.84627246856689	922.2669067382812	114.6178970336914	-150.1348724365234	684.28759765625	242.4170074462891	-58.5446662902832	738.101806640625	210.621826171875	-109.6828002929688	769.6509399414062	237.1809692382812	-314.3220825195312	1366.990966796875	-75.79005432128906	-373.3223266601562	1319.99951171875	-118.58935546875	-412.1207580566406	1069.790283203125	-206.0402679443359	-322.3860778808594	1054.158325195312	-179.9957885742188	-438.728515625	828.1412963867188	-144.4584808349609	-472.9227294921875	842.7578125	-222.0714111328125	-439.5645751953125	1003.177429199219	-208.1887969970703	-446.9380493164062	648.6708374023438	-184.4115447998047	-473.4934692382812	713.64990234375	-158.3898468017578	-487.4960021972656	728.9893798828125	-226.1116027832031	-233.6516723632812	1542.224853515625	-54.82414245605469	-161.0353546142578	1558.12158203125	145.0003662109375	-250.4418640136719	1560.920288085938	119.7664260864258	-93.23816680908203	1527.694091796875	-15.0938549041748	-43.37482070922852	898.72998046875	-20.20597839355469	-367.289306640625	909.3394775390625	57.33434677124023	-117.2589340209961	896.3037109375	106.0795211791992	-99.48382568359375	450.34765625	-93.78154754638672	-71.21696472167969	584.5947265625	-47.03323745727539	-77.03218841552734	65.69750213623047	-340.2185974121094	-79.72885894775391	251.9467620849609	-217.5716247558594	-270.0217895507812	35.79681777954102	-252.2527770996094	-240.5806884765625	40.43452453613281	-324.8587036132812	-158.0611724853516	40.49826431274414	-249.4615936279297	-84.94975280761719	83.58341979980469	-413.12353515625	-424.3115539550781	474.8062133789062	127.129150390625	-443.6981811523438	714.9370727539062	29.91766357421875	-448.2264099121094	44.01131439208984	270.6819763183594	-426.9970092773438	369.5337524414062	191.5367279052734	-384.06103515625	118.6529998779297	440.5542297363281	-346.3830261230469	91.35095977783203	390.6622924804688	-460.9029846191406	66.06570434570312	372.3843994140625	-399.5461730957031	28.52765655517578	219.0223083496094	-415.8253173828125	903.6657104492188	-72.41741943359375	nan	nan	nan	
417	4.16	-297.4313049316406	952.4376831054688	-138.2678070068359	-127.9544296264648	948.7222900390625	-96.15031433105469	-194.3176574707031	1015.35009765625	-102.1965942382812	-254.2973480224609	1194.783081054688	134.6734313964844	-167.718994140625	1130.786865234375	-112.9211349487305	-147.7509460449219	1375.306030273438	-60.29655075073242	-221.6843719482422	1294.567993164062	79.85975646972656	-206.2969665527344	1240.945556640625	-139.6209869384766	-48.62129974365234	1331.289306640625	-36.11176300048828	-37.04999160766602	1335.81640625	68.12344360351562	36.22041320800781	1214.373291015625	69.09191131591797	33.1953125	1012.356994628906	84.98682403564453	11.53633689880371	995.6489868164062	1.519216179847717	-90.26935577392578	840.5701293945312	179.1464233398438	-25.07110786437988	808.107666015625	180.3564147949219	13.83803367614746	918.2945556640625	118.8582305908203	-144.4208679199219	673.1212768554688	241.5554962158203	-55.05385971069336	729.7911987304688	209.4112548828125	-106.0847778320312	759.3740844726562	238.0948944091797	-320.1954650878906	1364.7412109375	-65.37185668945312	-379.5758972167969	1317.241821289062	-107.3327178955078	-420.3934936523438	1066.447143554688	-192.5064086914062	-330.1760864257812	1050.45947265625	-167.5880126953125	-448.4775085449219	825.7721557617188	-129.0887756347656	-482.79052734375	840.0206909179688	-206.7818450927734	-448.3538513183594	1000.142944335938	-194.0628509521484	-459.5155944824219	646.0691528320312	-167.1868438720703	-484.881103515625	711.7090454101562	-141.7482147216797	-498.85986328125	726.5352172851562	-209.6317749023438	-239.099365234375	1541.248657226562	-45.2855224609375	-164.1018829345703	1557.078247070312	153.6637268066406	-253.7753601074219	1560.108276367188	129.4873046875	-98.28029632568359	1526.376342773438	-7.199050903320312	-47.7207145690918	896.786376953125	-10.78178596496582	-370.7190246582031	908.0043334960938	69.68063354492188	-120.3561248779297	894.6725463867188	116.7301177978516	-102.7989273071289	449.0203247070312	-85.610107421875	-74.79615783691406	583.146240234375	-38.423095703125	-77.48101806640625	68.39654541015625	-338.587646484375	-81.72338104248047	252.6416473388672	-212.4785003662109	-269.9959106445312	35.76658248901367	-251.9373168945312	-240.7276611328125	41.54573059082031	-324.1142578125	-158.2869720458984	40.49710083007812	-248.7009582519531	-85.27119445800781	88.24402618408203	-410.9405822753906	-425.6527709960938	475.1773071289062	141.5394744873047	-446.659423828125	714.8945922851562	44.34056091308594	-447.5641784667969	42.83821868896484	274.7468566894531	-427.1082153320312	368.6112060546875	204.9393920898438	-381.4300842285156	107.3335723876953	447.5206909179688	-344.268798828125	82.53620910644531	396.4078674316406	-459.2236938476562	59.50419616699219	377.5108032226562	-399.2006225585938	29.67565155029297	222.2341156005859	-420.596923828125	903.2007446289062	-59.56427764892578	nan	nan	nan	
418	4.17	-302.5418701171875	952.0078125	-126.5720748901367	-132.5072021484375	947.4799194335938	-85.79959869384766	-199.4583587646484	1013.8876953125	-90.63226318359375	-257.7699890136719	1193.849609375	145.4174957275391	-173.3855285644531	1129.202758789062	-102.4782333374023	-153.4132995605469	1374.182739257812	-51.50641250610352	-225.9423370361328	1293.597290039062	90.07685089111328	-212.5807342529297	1239.083740234375	-129.6120758056641	-53.85366821289062	1330.397705078125	-28.1484375	-41.32555770874023	1335.020141601562	76.12938690185547	31.79926872253418	1213.342651367188	76.46224975585938	29.28838729858398	1010.572814941406	91.72660064697266	5.678040504455566	994.953857421875	8.606010437011719	-89.62153625488281	832.9832763671875	182.3044281005859	-23.45904731750488	801.7442626953125	180.73388671875	11.80068492889404	914.673583984375	123.0266723632812	-137.8286285400391	662.0228271484375	239.6986541748047	-51.03380966186523	721.8983154296875	207.3506774902344	-101.9672622680664	749.164794921875	238.2186126708984	-326.0342102050781	1362.806518554688	-54.84699630737305	-385.7719421386719	1314.720336914062	-95.90298461914062	-428.6219787597656	1063.275024414062	-178.5165100097656	-337.9253540039062	1046.941650390625	-154.7579040527344	-458.1316833496094	823.61767578125	-113.3724060058594	-492.5333862304688	837.531982421875	-191.1576080322266	-457.0745544433594	997.3152465820312	-179.5170135498047	-471.9130249023438	643.7495727539062	-149.7654571533203	-496.0884399414062	710.0001831054688	-124.874267578125	-510.0571899414062	724.3702392578125	-192.9159851074219	-244.562744140625	1540.731567382812	-35.63986587524414	-167.1393127441406	1556.423583984375	162.3895111083984	-257.0896606445312	1559.648071289062	139.2919311523438	-103.3411102294922	1525.558959960938	0.7489153742790222	-51.95006561279297	894.8981323242188	-1.158859848976135	-373.985107421875	907.3294677734375	82.07780456542969	-123.4022674560547	893.2689208984375	127.4626312255859	-106.3884429931641	447.7096862792969	-76.83708953857422	-78.63841247558594	581.7069091796875	-29.33993721008301	-78.02926635742188	71.45792388916016	-336.5527038574219	-83.88165283203125	253.5012969970703	-206.8406524658203	-269.9664916992188	35.73647689819336	-251.5676727294922	-240.8905639648438	42.78483581542969	-323.2141723632812	-158.5830688476562	40.45415115356445	-247.7982788085938	-85.70722961425781	93.45394134521484	-408.2196044921875	-427.1523742675781	476.2903137207031	155.9267883300781	-449.4360046386719	715.7879638671875	58.95428848266602	-447.3572998046875	42.07592391967773	277.7511291503906	-427.4981384277344	368.3543090820312	218.0128173828125	-379.8296508789062	96.33018493652344	453.5736999511719	-343.0550231933594	74.38593292236328	401.2590942382812	-458.2908630371094	53.28249740600586	381.4409484863281	-399.1429748535156	31.29310417175293	224.5877227783203	-425.20361328125	903.7467041015625	-46.66552734375	nan	nan	nan	
